<svg xmlns="http://www.w3.org/2000/svg" xmlns:xlink="http://www.w3.org/1999/xlink" width="500" zoomAndPan="magnify" viewBox="0 0 375 374.999991" height="500" preserveAspectRatio="xMidYMid meet" version="1.0"><defs><clipPath id="58fe7a8e1f"><path d="M 72.4375 108 L 302.503906 108 L 302.503906 325.125 L 72.4375 325.125 Z M 72.4375 108 " clip-rule="nonzero"/></clipPath><clipPath id="a26454c670"><path d="M 122.925781 195.566406 L 162.914062 195.566406 L 162.914062 200.984375 L 122.925781 200.984375 Z M 122.925781 195.566406 " clip-rule="nonzero"/></clipPath><clipPath id="707c1b40ee"><path d="M 125.023438 195.601562 C 162.300781 196.351562 162.976562 197.175781 162.898438 197.773438 C 162.898438 198.375 161.550781 199.5 160.949219 199.5 C 160.351562 199.5 159.449219 198.523438 159.300781 198 C 159.148438 197.476562 159.523438 196.726562 159.824219 196.351562 C 160.199219 196.050781 161.023438 195.75 161.476562 195.898438 C 162.074219 196.050781 162.976562 197.023438 162.898438 197.550781 C 162.898438 198.226562 162.300781 198.976562 161.101562 199.5 C 156.75 201.375 129.523438 201.449219 125.023438 199.726562 C 123.75 199.273438 123.148438 198.523438 123 197.925781 C 122.851562 197.476562 123 196.875 123.300781 196.5 C 123.675781 196.125 125.023438 195.601562 125.023438 195.601562 " clip-rule="nonzero"/></clipPath></defs><g clip-path="url(#58fe7a8e1f)"><path fill="#000000" d="M 301.007812 205.808594 L 192.398438 109.871094 C 189.582031 107.382812 185.359375 107.382812 182.542969 109.871094 L 73.933594 205.808594 C 73.132812 206.515625 72.675781 207.53125 72.675781 208.601562 L 72.675781 321.4375 C 72.675781 323.496094 74.34375 325.160156 76.398438 325.160156 L 152.742188 325.160156 C 154.796875 325.160156 156.464844 323.496094 156.464844 321.4375 L 156.464844 249.367188 C 156.464844 241.148438 163.128906 234.480469 171.351562 234.480469 L 203.589844 234.480469 C 211.8125 234.480469 218.476562 241.148438 218.476562 249.367188 L 218.476562 321.4375 C 218.476562 323.496094 220.144531 325.160156 222.199219 325.160156 L 298.542969 325.160156 C 300.597656 325.160156 302.265625 323.496094 302.265625 321.4375 L 302.265625 208.601562 C 302.265625 207.53125 301.804688 206.515625 301.007812 205.808594 " fill-opacity="1" fill-rule="nonzero"/></g><path fill="#000000" d="M 330.929688 168.582031 L 207.125 59.777344 C 195.882812 49.898438 179.054688 49.898438 167.816406 59.777344 L 44.011719 168.582031 C 37.910156 173.949219 37.609375 183.351562 43.351562 189.097656 C 48.601562 194.347656 57.027344 194.613281 62.59375 189.707031 L 177.632812 88.386719 C 183.253906 83.433594 191.6875 83.433594 197.308594 88.386719 L 312.34375 189.707031 C 317.914062 194.613281 326.339844 194.347656 331.589844 189.097656 C 337.335938 183.351562 337.03125 173.945312 330.929688 168.582031 " fill-opacity="1" fill-rule="nonzero"/><g clip-path="url(#a26454c670)"><g clip-path="url(#707c1b40ee)"><path fill="#000000" d="M 120 192.601562 L 165.957031 192.601562 L 165.957031 202.726562 L 120 202.726562 Z M 120 192.601562 " fill-opacity="1" fill-rule="nonzero"/></g></g></svg>