<svg xmlns="http://www.w3.org/2000/svg" xmlns:xlink="http://www.w3.org/1999/xlink" width="500" zoomAndPan="magnify" viewBox="0 0 375 374.999991" height="500" preserveAspectRatio="xMidYMid meet" version="1.0"><defs><clipPath id="c60b33aaa6"><path d="M 30.09375 35 L 79 35 L 79 287 L 30.09375 287 Z M 30.09375 35 " clip-rule="nonzero"/></clipPath><clipPath id="1cd4fc0775"><path d="M 160 11.109375 L 330.09375 11.109375 L 330.09375 311.109375 L 160 311.109375 Z M 160 11.109375 " clip-rule="nonzero"/></clipPath><clipPath id="62777a6dd1"><path d="M 309.609375 93.234375 L 317.859375 93.234375 L 317.859375 127.839844 L 309.609375 127.839844 Z M 309.609375 93.234375 " clip-rule="nonzero"/></clipPath><clipPath id="b709d2cafe"><path d="M 317.851562 95.625 C 313.273438 126.824219 313.199219 126.976562 312.898438 127.273438 C 312.523438 127.574219 311.699219 127.875 311.25 127.800781 C 310.726562 127.726562 310.050781 127.125 309.824219 126.675781 C 309.601562 126.300781 309.601562 125.851562 309.75 125.476562 C 309.898438 125.023438 310.425781 124.273438 310.949219 124.125 C 311.476562 123.976562 312.75 124.351562 313.125 124.800781 C 313.5 125.324219 313.425781 126.601562 313.050781 127.125 C 312.75 127.574219 311.925781 127.800781 311.398438 127.800781 C 311.023438 127.800781 310.574219 127.648438 310.273438 127.351562 C 309.976562 126.976562 309.824219 126.601562 309.675781 125.699219 C 309.226562 121.800781 311.550781 99 313.648438 95.101562 C 314.324219 93.898438 315.074219 93.375 315.75 93.300781 C 316.273438 93.148438 316.800781 93.449219 317.175781 93.824219 C 317.550781 94.199219 317.851562 95.625 317.851562 95.625 " clip-rule="nonzero"/></clipPath></defs><path fill="#000000" d="M 117.1875 170.789062 L 126.867188 170.789062 C 126.867188 157.433594 137.707031 146.59375 151.058594 146.59375 L 151.058594 136.917969 C 140.367188 136.917969 131.707031 128.257812 131.707031 117.5625 C 131.707031 106.871094 140.367188 98.207031 151.058594 98.207031 L 151.058594 88.53125 C 135.042969 88.53125 122.027344 101.546875 122.027344 117.5625 C 122.027344 127.386719 126.964844 136.046875 134.414062 141.320312 C 124.15625 147.128906 117.1875 158.160156 117.1875 170.789062 Z M 117.1875 170.789062 " fill-opacity="1" fill-rule="nonzero"/><path fill="#000000" d="M 112.113281 186.058594 L 150.824219 184.125 L 151.308594 193.789062 L 112.597656 195.722656 Z M 112.113281 186.058594 " fill-opacity="1" fill-rule="nonzero"/><path fill="#000000" d="M 112.113281 205.390625 L 150.824219 203.457031 L 151.304688 213.121094 L 112.59375 215.054688 Z M 112.113281 205.390625 " fill-opacity="1" fill-rule="nonzero"/><path fill="#000000" d="M 112.109375 224.769531 L 150.820312 222.835938 L 151.304688 232.5 L 112.59375 234.433594 Z M 112.109375 224.769531 " fill-opacity="1" fill-rule="nonzero"/><path fill="#000000" d="M 54.527344 195.707031 L 78.480469 194.5 L 78.480469 184.820312 L 54.042969 186.03125 Z M 54.527344 195.707031 " fill-opacity="1" fill-rule="nonzero"/><path fill="#000000" d="M 54.527344 215.0625 L 78.480469 213.851562 L 78.480469 204.175781 L 54.042969 205.386719 Z M 54.527344 215.0625 " fill-opacity="1" fill-rule="nonzero"/><path fill="#000000" d="M 54.527344 234.417969 L 78.480469 233.207031 L 78.480469 223.53125 L 54.042969 224.738281 Z M 54.527344 234.417969 " fill-opacity="1" fill-rule="nonzero"/><path fill="#000000" d="M 85.011719 21.949219 C 83.949219 22.871094 83.320312 24.222656 83.320312 25.628906 L 83.320312 296.59375 C 83.320312 298 83.949219 299.351562 85.011719 300.273438 C 85.882812 301.046875 86.996094 301.433594 88.15625 301.433594 C 88.398438 301.433594 88.640625 301.433594 88.882812 301.386719 L 151.058594 292 L 151.058594 282.175781 L 92.996094 290.980469 L 92.996094 31.238281 L 151.058594 40.046875 L 151.058594 30.222656 L 88.882812 20.835938 C 87.480469 20.644531 86.078125 21.03125 85.011719 21.949219 Z M 85.011719 21.949219 " fill-opacity="1" fill-rule="nonzero"/><g clip-path="url(#c60b33aaa6)"><path fill="#000000" d="M 34.929688 286.917969 C 34.929688 286.917969 35.414062 286.917969 35.65625 286.871094 L 78.480469 280.386719 L 78.480469 270.5625 L 39.769531 276.464844 L 39.769531 45.757812 L 78.480469 51.660156 L 78.480469 41.835938 L 35.65625 35.351562 C 34.253906 35.160156 32.851562 35.546875 31.785156 36.464844 C 30.722656 37.386719 30.09375 38.738281 30.09375 40.144531 L 30.09375 282.078125 C 30.09375 283.480469 30.722656 284.835938 31.785156 285.757812 C 32.65625 286.53125 33.769531 286.917969 34.929688 286.917969 Z M 34.929688 286.917969 " fill-opacity="1" fill-rule="nonzero"/></g><path fill="#000000" d="M 242.949219 127.144531 L 242.996094 127.144531 C 250.738281 127.144531 257.996094 124.144531 263.464844 118.675781 C 268.980469 113.207031 271.980469 105.902344 272.027344 98.160156 C 272.027344 90.417969 269.027344 83.109375 263.558594 77.59375 C 258.09375 72.128906 250.785156 69.078125 243.042969 69.078125 L 242.996094 69.078125 C 226.980469 69.078125 213.964844 82.046875 213.964844 98.0625 C 213.914062 105.804688 216.964844 113.109375 222.429688 118.578125 C 227.898438 124.09375 235.15625 127.144531 242.949219 127.144531 Z M 242.949219 127.144531 " fill-opacity="1" fill-rule="nonzero"/><path fill="#000000" d="M 54.285156 170.789062 L 63.964844 170.789062 C 63.964844 160.871094 69.964844 152.351562 78.480469 148.578125 L 78.480469 134.304688 C 72.671875 130.964844 68.800781 124.722656 68.800781 117.5625 C 68.800781 110.402344 72.671875 104.160156 78.480469 100.820312 L 78.480469 90.222656 C 67.207031 94.144531 59.125 104.933594 59.125 117.5625 C 59.125 127.386719 64.011719 136.09375 71.511719 141.320312 C 61.253906 147.128906 54.285156 158.160156 54.285156 170.789062 Z M 54.285156 170.789062 " fill-opacity="1" fill-rule="nonzero"/><g clip-path="url(#1cd4fc0775)"><path fill="#000000" d="M 325.980469 35.351562 L 166.300781 11.160156 C 164.898438 10.964844 163.496094 11.351562 162.429688 12.273438 C 161.367188 13.191406 160.738281 14.546875 160.738281 15.949219 L 160.738281 306.273438 C 160.738281 307.675781 161.367188 309.03125 162.429688 309.949219 C 163.300781 310.722656 164.464844 311.109375 165.578125 311.109375 C 165.820312 311.109375 166.058594 311.109375 166.300781 311.0625 L 325.980469 286.871094 C 328.351562 286.53125 330.09375 284.5 330.09375 282.078125 L 330.09375 40.144531 C 330.09375 37.773438 328.351562 35.738281 325.980469 35.351562 Z M 215.558594 125.402344 C 208.253906 118.09375 204.238281 108.371094 204.285156 98.015625 C 204.335938 76.722656 221.65625 59.402344 242.996094 59.402344 L 243.042969 59.402344 C 264.382812 59.449219 281.753906 76.820312 281.707031 98.160156 C 281.65625 108.515625 277.640625 118.238281 270.285156 125.546875 C 268.738281 127.09375 267.09375 128.449219 265.300781 129.660156 C 277.6875 134.738281 286.449219 146.933594 286.398438 161.109375 L 276.722656 161.109375 C 276.769531 147.757812 265.929688 136.871094 252.578125 136.820312 L 233.222656 136.820312 C 233.222656 136.820312 233.171875 136.773438 233.171875 136.773438 C 219.867188 136.773438 209.027344 147.609375 208.980469 160.917969 L 199.300781 160.917969 C 199.351562 146.738281 208.109375 134.59375 220.542969 129.609375 C 218.753906 128.351562 217.109375 126.949219 215.558594 125.402344 Z M 300.820312 174.902344 L 301.300781 184.578125 L 190.011719 190.144531 L 189.527344 180.464844 Z M 300.820312 194.257812 L 301.300781 203.933594 L 190.011719 209.5 L 189.527344 199.820312 Z M 301.300781 223.289062 L 279.578125 224.351562 L 279.09375 214.722656 L 300.820312 213.609375 Z M 265.980469 225.03125 L 225.335938 227.0625 L 224.851562 217.433594 L 265.496094 215.402344 Z M 211.253906 218.109375 L 211.738281 227.738281 L 190.011719 228.851562 L 189.527344 219.175781 Z M 211.253906 218.109375 " fill-opacity="1" fill-rule="nonzero"/></g><g clip-path="url(#62777a6dd1)"><g clip-path="url(#b709d2cafe)"><path fill="#000000" d="M 306.675781 90.300781 L 320.851562 90.300781 L 320.851562 130.886719 L 306.675781 130.886719 Z M 306.675781 90.300781 " fill-opacity="1" fill-rule="nonzero"/></g></g></svg>