<svg xmlns="http://www.w3.org/2000/svg" xmlns:xlink="http://www.w3.org/1999/xlink" width="500" zoomAndPan="magnify" viewBox="0 0 375 374.999991" height="500" preserveAspectRatio="xMidYMid meet" version="1.0"><defs><clipPath id="594706c8e8"><path d="M 20.21875 172 L 346.46875 172 L 346.46875 343.957031 L 20.21875 343.957031 Z M 20.21875 172 " clip-rule="nonzero"/></clipPath><clipPath id="41ca73cb8e"><path d="M 50.917969 177.699219 L 69.90625 177.699219 L 69.90625 183.203125 L 50.917969 183.203125 Z M 50.917969 177.699219 " clip-rule="nonzero"/></clipPath><clipPath id="9e810122d5"><path d="M 53.023438 178.273438 C 69.375 178.425781 69.898438 179.476562 69.898438 180.226562 C 69.976562 180.898438 69.375 181.800781 68.773438 182.101562 C 68.101562 182.398438 66.601562 182.25 66 181.800781 C 65.476562 181.351562 65.101562 180.375 65.324219 179.699219 C 65.476562 179.023438 66.601562 177.898438 67.351562 177.75 C 67.949219 177.675781 68.925781 178.125 69.375 178.574219 C 69.75 179.101562 70.050781 180.074219 69.824219 180.75 C 69.601562 181.425781 68.773438 182.023438 67.574219 182.398438 C 64.875 183.375 55.199219 183.375 52.875 182.851562 C 52.125 182.625 51.824219 182.398438 51.449219 182.023438 C 51.148438 181.648438 50.925781 180.976562 50.925781 180.449219 C 51 180 51.226562 179.324219 51.601562 178.949219 C 51.898438 178.574219 53.023438 178.273438 53.023438 178.273438 " clip-rule="nonzero"/></clipPath></defs><g clip-path="url(#594706c8e8)"><path fill="#000000" d="M 75.730469 172.804688 C 90.992188 172.804688 106.246094 172.804688 121.507812 172.804688 C 128.273438 172.804688 130.828125 175.308594 131.121094 182.144531 C 132.285156 209.902344 153.90625 231.648438 181.597656 232.898438 C 208.136719 234.101562 232.167969 213.578125 235.128906 187.183594 C 235.347656 185.261719 235.625 183.339844 235.707031 181.402344 C 235.945312 175.660156 238.738281 172.855469 244.605469 172.8125 C 252.230469 172.753906 259.867188 172.796875 267.492188 172.796875 C 290.503906 172.796875 313.507812 172.796875 336.519531 172.796875 C 343.785156 172.796875 346.417969 175.40625 346.441406 182.605469 C 346.46875 190.480469 346.484375 198.351562 346.433594 206.226562 C 346.386719 212.226562 344.007812 214.679688 338.054688 215.492188 C 328.960938 216.738281 319.890625 218.203125 310.792969 219.394531 C 308.386719 219.707031 307.425781 220.808594 306.726562 223.035156 C 305.125 228.101562 303.152344 233.058594 300.605469 237.734375 C 299.390625 239.953125 299.558594 241.539062 301.117188 243.558594 C 306.675781 250.734375 312.046875 258.050781 317.453125 265.34375 C 321.257812 270.46875 321.046875 273.671875 316.636719 278.09375 C 304.746094 290.007812 292.847656 301.910156 280.933594 313.8125 C 276.460938 318.28125 273.273438 318.523438 268.199219 314.753906 C 260.820312 309.261719 253.417969 303.804688 246.121094 298.207031 C 244.335938 296.835938 242.910156 296.675781 240.910156 297.726562 C 235.878906 300.367188 230.632812 302.550781 225.1875 304.195312 C 223.320312 304.765625 222.605469 305.726562 222.34375 307.691406 C 221.09375 317.03125 219.601562 326.339844 218.296875 335.675781 C 217.539062 341.097656 214.929688 343.746094 209.476562 343.769531 C 192.164062 343.84375 174.84375 343.84375 157.53125 343.769531 C 151.867188 343.746094 149.328125 341.140625 148.542969 335.449219 C 147.246094 326.117188 145.753906 316.804688 144.472656 307.472656 C 144.226562 305.667969 143.542969 304.765625 141.816406 304.234375 C 136.265625 302.53125 130.902344 300.308594 125.769531 297.601562 C 123.871094 296.597656 122.554688 296.816406 120.894531 298.082031 C 113.390625 303.804688 105.816406 309.445312 98.21875 315.042969 C 93.632812 318.421875 90.277344 318.167969 86.320312 314.214844 C 74.144531 302.0625 61.984375 289.90625 49.84375 277.71875 C 45.878906 273.746094 45.660156 270.398438 49.042969 265.832031 C 54.589844 258.34375 60.105469 250.828125 65.796875 243.457031 C 67.273438 241.535156 67.433594 240.046875 66.292969 237.945312 C 63.695312 233.160156 61.671875 228.09375 60.042969 222.90625 C 59.328125 220.617188 58.234375 219.695312 55.886719 219.386719 C 46.78125 218.203125 37.714844 216.738281 28.625 215.492188 C 22.917969 214.707031 20.371094 212.160156 20.3125 206.503906 C 20.234375 198.269531 20.226562 190.03125 20.3125 181.796875 C 20.378906 175.628906 23.339844 172.820312 29.621094 172.804688 C 45 172.785156 60.375 172.796875 75.761719 172.804688 Z M 76.074219 188.457031 L 45.1875 188.457031 C 35.589844 188.457031 35.675781 188.457031 35.75 198.160156 C 35.761719 200.316406 36.390625 201.042969 38.484375 201.328125 C 47.34375 202.542969 56.164062 204.058594 65.027344 205.1875 C 69.386719 205.738281 71.730469 208.0625 72.828125 212.078125 C 75.164062 220.632812 78.503906 228.785156 82.941406 236.453125 C 85.257812 240.449219 84.84375 243.890625 82.070312 247.480469 C 76.734375 254.375 71.65625 261.464844 66.335938 268.367188 C 64.953125 270.164062 64.996094 271.210938 66.65625 272.828125 C 74.878906 280.871094 83.050781 288.980469 91.050781 297.257812 C 93.007812 299.28125 94.179688 298.917969 96.09375 297.441406 C 103 292.121094 110.039062 286.988281 116.988281 281.722656 C 119.941406 279.488281 123.019531 278.609375 126.40625 280.539062 C 134.855469 285.34375 143.777344 288.960938 153.097656 291.667969 C 156.476562 292.644531 158.25 294.957031 158.746094 298.453125 C 160.027344 307.429688 161.46875 316.375 162.683594 325.359375 C 162.980469 327.542969 163.65625 328.351562 166 328.328125 C 177.625 328.199219 189.253906 328.21875 200.882812 328.316406 C 202.941406 328.328125 203.800781 327.863281 204.089844 325.648438 C 205.269531 316.785156 206.8125 307.96875 207.949219 299.101562 C 208.5 294.761719 210.765625 292.351562 214.796875 291.253906 C 223.347656 288.925781 231.507812 285.597656 239.167969 281.164062 C 243.164062 278.847656 246.585938 279.175781 250.1875 281.964844 C 257.078125 287.292969 264.152344 292.394531 271.074219 297.6875 C 272.785156 299 273.855469 299.210938 275.550781 297.46875 C 283.664062 289.140625 291.886719 280.917969 300.210938 272.800781 C 301.9375 271.117188 301.777344 270.046875 300.453125 268.324219 C 295.082031 261.304688 289.863281 254.179688 284.523438 247.132812 C 282.296875 244.191406 281.335938 241.109375 283.257812 237.710938 C 288.039062 229.253906 291.691406 220.335938 294.382812 211.007812 C 295.351562 207.652344 297.609375 205.777344 301.117188 205.296875 C 307.941406 204.363281 314.746094 203.316406 321.566406 202.363281 C 331.59375 200.957031 331.535156 200.976562 331.054688 190.832031 C 330.960938 188.863281 330.277344 188.414062 328.480469 188.421875 C 303.40625 188.464844 278.335938 188.464844 253.265625 188.421875 C 251.375 188.421875 250.542969 188.921875 250.203125 190.976562 C 244.058594 228.261719 211.152344 252.453125 173.433594 247.503906 C 144.992188 243.769531 120.734375 220.007812 116.675781 191.644531 C 116.273438 188.835938 115.203125 188.382812 112.757812 188.40625 C 100.527344 188.5 88.292969 188.449219 76.058594 188.449219 Z M 76.074219 188.457031 " fill-opacity="1" fill-rule="nonzero"/></g><path fill="#000000" d="M 175.570312 113.105469 C 175.570312 100.269531 175.535156 87.4375 175.609375 74.609375 C 175.621094 72.550781 175.054688 71.472656 173.066406 70.519531 C 162.273438 65.378906 156.589844 53.9375 159.132812 42.980469 C 161.898438 31.09375 171.832031 23.078125 183.613281 23.230469 C 195.378906 23.382812 204.972656 31.28125 207.679688 43.046875 C 210.148438 53.746094 204.621094 65.253906 194.304688 70.191406 C 191.777344 71.398438 191.167969 72.796875 191.175781 75.402344 C 191.269531 100.582031 191.238281 125.765625 191.226562 150.945312 C 191.226562 156.8125 188.320312 160.335938 183.539062 160.414062 C 178.808594 160.496094 175.613281 157.050781 175.585938 151.601562 C 175.535156 138.765625 175.570312 125.933594 175.5625 113.105469 Z M 183.53125 38.773438 C 178.277344 38.714844 173.964844 42.898438 173.96875 48.039062 C 173.976562 53.019531 178.15625 57.183594 183.210938 57.246094 C 188.460938 57.320312 192.796875 53.121094 192.773438 47.988281 C 192.753906 42.972656 188.597656 38.832031 183.53125 38.773438 Z M 183.53125 38.773438 " fill-opacity="1" fill-rule="nonzero"/><path fill="#000000" d="M 93.09375 130.976562 C 93.09375 124.074219 92.964844 117.160156 93.167969 110.265625 C 93.242188 107.683594 92.273438 106.34375 90.148438 105.15625 C 83.699219 101.574219 77.3125 97.890625 70.988281 94.105469 C 68.90625 92.859375 67.492188 92.730469 65.273438 94.257812 C 56.476562 100.328125 47.117188 100.6875 38.035156 95.074219 C 28.902344 89.425781 25.035156 80.710938 26.636719 70.226562 C 28.1875 60.035156 34.378906 53.1875 44.367188 50.222656 C 60.019531 45.578125 75.984375 57.5625 75.710938 73.960938 C 75.644531 77.9375 76.824219 79.9375 80.214844 81.742188 C 87.992188 85.894531 95.503906 90.558594 103.203125 94.871094 C 106.851562 96.90625 108.589844 99.679688 108.558594 103.945312 C 108.445312 119.933594 108.546875 135.925781 108.496094 151.921875 C 108.472656 158.21875 103.175781 162.164062 97.820312 159.898438 C 94.585938 158.539062 93.09375 155.929688 93.109375 152.414062 C 93.132812 145.265625 93.109375 138.117188 93.109375 130.976562 Z M 51.222656 64.839844 C 45.964844 64.78125 41.65625 68.960938 41.679688 74.09375 C 41.703125 79.109375 45.851562 83.230469 50.921875 83.28125 C 56.207031 83.339844 60.484375 79.183594 60.476562 74.019531 C 60.464844 69.019531 56.308594 64.890625 51.222656 64.832031 Z M 51.222656 64.839844 " fill-opacity="1" fill-rule="nonzero"/><path fill="#000000" d="M 258.300781 127.167969 C 258.300781 119.175781 258.425781 111.175781 258.25 103.191406 C 258.15625 98.800781 259.910156 95.945312 263.730469 93.84375 C 271.460938 89.578125 278.941406 84.867188 286.71875 80.726562 C 290.015625 78.96875 291.203125 77.0625 291.09375 73.21875 C 290.753906 60.640625 299.71875 50.660156 312.644531 48.5625 C 323.71875 46.765625 335.421875 54.328125 339.058594 65.625 C 342.296875 75.671875 338.898438 86.382812 330.429688 92.816406 C 322.109375 99.136719 310.546875 99.585938 301.960938 93.566406 C 299.609375 91.921875 298.023438 91.738281 295.578125 93.269531 C 289.53125 97.046875 283.351562 100.628906 277.054688 103.976562 C 274.40625 105.386719 273.671875 107.105469 273.699219 109.96875 C 273.839844 123.777344 273.789062 137.585938 273.75 151.390625 C 273.738281 156.222656 271.800781 159.214844 268.273438 160.167969 C 263.003906 161.59375 258.367188 157.992188 258.316406 152.242188 C 258.238281 143.882812 258.292969 135.527344 258.292969 127.167969 Z M 325.117188 73.300781 C 325.292969 68.285156 320.875 63.710938 315.800781 63.660156 C 310.894531 63.609375 306.515625 67.839844 306.339844 72.796875 C 306.164062 77.660156 310.335938 82.144531 315.300781 82.4375 C 320.277344 82.726562 324.933594 78.386719 325.109375 73.292969 Z M 325.117188 73.300781 " fill-opacity="1" fill-rule="nonzero"/><path fill="#000000" d="M 147.058594 121.6875 C 147.058594 131.742188 147.074219 141.785156 147.058594 151.839844 C 147.050781 157.109375 144.074219 160.714844 139.5625 160.707031 C 135.414062 160.707031 131.613281 157.496094 131.679688 151.8125 C 131.898438 133.40625 131.722656 115.003906 131.8125 96.59375 C 131.820312 94.351562 131.171875 92.757812 129.613281 91.164062 C 116.515625 77.726562 103.503906 64.207031 90.433594 50.738281 C 88.335938 48.585938 86.558594 46.285156 87.019531 43.109375 C 87.441406 40.167969 89.070312 37.90625 91.902344 36.820312 C 94.855469 35.691406 97.664062 36.195312 99.972656 38.402344 C 102.242188 40.578125 104.375 42.898438 106.566406 45.15625 C 118.9375 57.945312 131.273438 70.773438 143.710938 83.503906 C 146.0625 85.914062 147.175781 88.484375 147.117188 91.898438 C 146.957031 101.828125 147.058594 111.757812 147.058594 121.6875 Z M 147.058594 121.6875 " fill-opacity="1" fill-rule="nonzero"/><path fill="#000000" d="M 219.753906 121.628906 C 219.753906 111.460938 219.804688 101.289062 219.714844 91.121094 C 219.695312 88.390625 220.53125 86.222656 222.417969 84.285156 C 236.992188 69.246094 251.519531 54.160156 266.109375 39.128906 C 269.597656 35.539062 274.144531 35.328125 277.398438 38.402344 C 280.804688 41.625 280.78125 46.132812 277.085938 49.976562 C 263.992188 63.589844 250.878906 77.179688 237.671875 90.675781 C 235.734375 92.65625 235 94.644531 235.015625 97.382812 C 235.121094 115.660156 235.101562 133.945312 235.050781 152.234375 C 235.035156 158.441406 230.058594 162.242188 224.738281 160.152344 C 221.347656 158.820312 219.730469 156.207031 219.746094 152.511719 C 219.789062 142.214844 219.761719 131.921875 219.761719 121.636719 Z M 219.753906 121.628906 " fill-opacity="1" fill-rule="nonzero"/><g clip-path="url(#41ca73cb8e)"><g clip-path="url(#9e810122d5)"><path fill="#000000" d="M 47.925781 174.75 L 72.898438 174.75 L 72.898438 185.851562 L 47.925781 185.851562 Z M 47.925781 174.75 " fill-opacity="1" fill-rule="nonzero"/></g></g></svg>