<svg xmlns="http://www.w3.org/2000/svg" xmlns:xlink="http://www.w3.org/1999/xlink" width="500" zoomAndPan="magnify" viewBox="0 0 375 374.999991" height="500" preserveAspectRatio="xMidYMid meet" version="1.0"><defs><clipPath id="cb76b70fd4"><path d="M 58.566406 58.566406 L 204 58.566406 L 204 291 L 58.566406 291 Z M 58.566406 58.566406 " clip-rule="nonzero"/></clipPath><clipPath id="fb1bbd3de0"><path d="M 187 119 L 291.066406 119 L 291.066406 199 L 187 199 Z M 187 119 " clip-rule="nonzero"/></clipPath><clipPath id="449e9f523c"><path d="M 90.171875 139.539062 L 99.253906 139.539062 L 99.253906 171.765625 L 90.171875 171.765625 Z M 90.171875 139.539062 " clip-rule="nonzero"/></clipPath><clipPath id="6ab4243ea0"><path d="M 99.226562 142.050781 C 93.226562 171.300781 92.324219 171.75 91.726562 171.675781 C 91.125 171.601562 90.375 170.550781 90.300781 169.949219 C 90.226562 169.5 90.601562 168.675781 91.050781 168.449219 C 91.574219 168.148438 92.773438 168.148438 93.226562 168.449219 C 93.675781 168.75 94.050781 169.574219 93.976562 170.023438 C 93.824219 170.625 92.476562 171.824219 91.875 171.75 C 91.273438 171.675781 90.601562 170.773438 90.300781 169.574219 C 89.398438 165.601562 93.675781 144.75 95.175781 141.300781 C 95.625 140.398438 95.925781 140.023438 96.375 139.800781 C 96.824219 139.574219 97.425781 139.5 97.800781 139.726562 C 98.398438 140.023438 99.226562 142.050781 99.226562 142.050781 " clip-rule="nonzero"/></clipPath></defs><g clip-path="url(#cb76b70fd4)"><path fill="#000000" d="M 189.113281 106.496094 L 189.113281 72.855469 L 109.917969 72.855469 L 159.25 89.566406 C 162.230469 90.585938 164.191406 93.34375 164.191406 96.46875 L 164.191406 245.414062 L 189.113281 245.414062 L 189.113281 211.773438 C 189.113281 207.707031 192.308594 204.507812 196.378906 204.507812 C 200.375 204.507812 203.644531 207.707031 203.644531 211.773438 L 203.644531 252.679688 C 203.644531 256.675781 200.375 259.945312 196.378906 259.945312 L 164.191406 259.945312 L 164.191406 283.558594 C 164.191406 285.882812 163.101562 288.136719 161.214844 289.445312 C 159.90625 290.390625 158.453125 290.824219 156.925781 290.824219 C 156.199219 290.824219 155.402344 290.679688 154.601562 290.460938 L 63.492188 259.582031 C 63.417969 259.511719 63.34375 259.4375 63.199219 259.4375 C 62.980469 259.292969 62.765625 259.148438 62.546875 259.074219 C 61.964844 258.785156 61.527344 258.421875 61.019531 258.058594 C 60.800781 257.839844 60.65625 257.621094 60.4375 257.402344 C 60.074219 256.96875 59.710938 256.53125 59.496094 255.949219 C 59.347656 255.730469 59.203125 255.515625 59.058594 255.222656 C 58.769531 254.425781 58.550781 253.550781 58.550781 252.679688 L 58.550781 65.589844 C 58.550781 64.71875 58.769531 63.847656 59.058594 63.046875 C 59.132812 62.902344 59.203125 62.757812 59.277344 62.613281 C 59.566406 61.886719 60.003906 61.230469 60.585938 60.578125 C 60.730469 60.503906 60.800781 60.359375 60.949219 60.285156 C 61.164062 60.070312 61.382812 59.851562 61.601562 59.707031 C 61.746094 59.558594 62.039062 59.558594 62.183594 59.488281 C 62.765625 59.125 63.417969 58.832031 64.144531 58.6875 C 64.507812 58.542969 64.871094 58.46875 65.234375 58.46875 C 65.453125 58.398438 65.597656 58.324219 65.816406 58.324219 L 196.378906 58.324219 C 200.375 58.324219 203.644531 61.59375 203.644531 65.589844 L 203.644531 106.496094 C 203.644531 110.566406 200.375 113.761719 196.378906 113.761719 C 192.308594 113.761719 189.113281 110.566406 189.113281 106.496094 Z M 189.113281 106.496094 " fill-opacity="1" fill-rule="nonzero"/></g><g clip-path="url(#fb1bbd3de0)"><path fill="#000000" d="M 290.46875 162.019531 C 290.476562 162 290.5 161.992188 290.503906 161.96875 C 290.875 161.097656 291.085938 160.136719 291.085938 159.128906 C 291.085938 158.117188 290.875 157.160156 290.503906 156.289062 C 290.5 156.265625 290.476562 156.257812 290.46875 156.238281 C 290.089844 155.371094 289.5625 154.601562 288.898438 153.949219 C 288.886719 153.933594 288.878906 153.910156 288.863281 153.898438 L 255.777344 121.980469 C 252.890625 119.203125 248.300781 119.277344 245.503906 122.160156 C 242.710938 125.046875 242.800781 129.652344 245.683594 132.433594 L 265.816406 151.855469 L 195.164062 151.855469 C 191.148438 151.855469 187.898438 155.109375 187.898438 159.121094 C 187.898438 163.132812 191.148438 166.386719 195.164062 166.386719 L 265.816406 166.386719 L 245.683594 185.808594 C 242.800781 188.589844 242.710938 193.195312 245.503906 196.082031 C 246.925781 197.5625 248.828125 198.304688 250.734375 198.304688 C 252.550781 198.304688 254.367188 197.628906 255.777344 196.269531 L 288.863281 164.351562 C 288.878906 164.335938 288.886719 164.316406 288.898438 164.300781 C 289.554688 163.65625 290.089844 162.882812 290.46875 162.019531 Z M 290.46875 162.019531 " fill-opacity="1" fill-rule="nonzero"/></g><g clip-path="url(#449e9f523c)"><g clip-path="url(#6ab4243ea0)"><path fill="#000000" d="M 87.300781 136.726562 L 102.300781 136.726562 L 102.300781 174.753906 L 87.300781 174.753906 Z M 87.300781 136.726562 " fill-opacity="1" fill-rule="nonzero"/></g></g></svg>